<svg width="160" height="154" viewBox="0 0 160 154" fill="none" xmlns="http://www.w3.org/2000/svg">
<g clip-path="url(#clip0_717_4484)">
<mask id="mask0_717_4484" style="mask-type:luminance" maskUnits="userSpaceOnUse" x="-125" y="-78" width="413" height="289">
<path d="M287.827 -77.4844H-124.688V210.796H287.827V-77.4844Z" fill="white"/>
</mask>
<g mask="url(#mask0_717_4484)">
<mask id="mask1_717_4484" style="mask-type:luminance" maskUnits="userSpaceOnUse" x="-125" y="-78" width="413" height="289">
<path d="M287.827 -77.4844H-124.688V210.796H287.827V-77.4844Z" fill="white"/>
</mask>
<g mask="url(#mask1_717_4484)">
<path fill-rule="evenodd" clip-rule="evenodd" d="M103.454 17.8359L103.513 17.773C104.183 17.0604 105.001 16.5001 105.911 16.1305C106.821 15.7609 107.802 15.591 108.785 15.6325H156.005V7.23789e-06H108.089C104.973 -0.0248392 101.884 0.576531 99.0098 1.76761C93.8148 3.96832 89.5939 7.94236 87.1179 12.9641C85.8341 12.6832 84.5846 12.4798 83.3695 12.3297C79.5917 11.7679 76.3676 11.2933 75.613 7.90825C75.3475 6.98508 75.4204 5.99889 75.8188 5.12366C76.0605 4.6842 76.4112 4.31261 76.838 4.04372C76.8623 4.03198 76.884 4.01551 76.9017 3.99529C77.368 3.71354 77.8777 3.50906 78.4108 3.38994C79.5504 3.1202 80.7484 3.23264 81.8162 3.70957C82.0163 3.80618 82.1945 3.94179 82.3402 4.10824C82.4859 4.27469 82.596 4.46853 82.6639 4.67812C82.7541 4.99482 82.7541 5.32998 82.6639 5.64668C82.5766 5.97878 82.4084 6.2847 82.1739 6.53774C82.0039 6.71276 81.8001 6.85225 81.5745 6.94792C81.3489 7.04359 81.1062 7.09348 80.8608 7.09466C79.1311 7.1334 78.7391 5.4239 80.459 4.67327C78.9057 3.75799 76.7253 5.11881 76.9164 7.14793C76.9617 7.63946 77.1301 8.11213 77.4064 8.52328C78.0041 9.40466 79.1213 10.0487 80.8999 10.0197C81.5355 10.0142 82.1634 9.88281 82.7467 9.63327C83.3299 9.38372 83.8566 9.02111 84.2956 8.56686C84.8888 7.9457 85.3092 7.18321 85.5156 6.35371C85.7264 5.51955 85.7061 4.64469 85.4568 3.82095C85.2728 3.24338 84.9726 2.70848 84.5743 2.24831C84.1761 1.78813 83.688 1.41216 83.1392 1.1429C81.4595 0.357286 79.5623 0.14932 77.7493 0.552082C76.864 0.738657 76.0195 1.07976 75.2553 1.55938C75.221 1.57004 75.1881 1.58466 75.1573 1.60296C74.3189 2.15339 73.6333 2.9026 73.1631 3.78221C72.424 5.25691 72.25 6.94614 72.6731 8.53781C73.8589 13.9036 78.0335 14.5235 82.8942 15.2354C83.8742 15.3806 84.9227 15.5356 85.9468 15.7196C86.6132 15.8552 87.2698 16.0102 87.9068 16.2039C90.5184 16.9691 91.5963 18.5623 92.0373 19.928C90.2881 19.405 88.0341 19.2694 85.1775 19.6859L85.0109 19.7149L84.6826 19.7633C78.9792 20.6011 77.5681 20.8045 74.9564 17.7245C74.653 17.3462 74.3257 16.9871 73.9765 16.6494C73.7276 15.7812 73.4164 14.9316 73.0455 14.107C70.596 8.63194 66.1688 4.25638 60.6292 1.83541C57.762 0.604323 54.666 -0.0208439 51.54 7.23789e-06H3.27148V15.6325H50.8442C51.8399 15.6249 52.8262 15.8228 53.74 16.2136C54.6547 16.5935 55.4866 17.1443 56.19 17.8359C56.9088 18.5155 57.4772 19.3351 57.8592 20.2428C58.2413 21.1505 58.4287 22.1267 58.4096 23.1097C58.4508 24.0809 58.2791 25.0494 57.9061 25.9488C57.5331 26.8482 56.9678 27.6573 56.2488 28.3205L56.19 28.3786C55.484 29.0671 54.6528 29.6175 53.74 30.0009C52.8256 30.3887 51.8392 30.5833 50.8442 30.5724H3.27148V46.2048H51.3734C52.3064 46.2338 53.2234 46.453 54.0666 46.8489C54.9098 47.2448 55.6611 47.8086 56.2733 48.5052L56.3713 48.602C57.0441 49.2646 57.5712 50.0574 57.9194 50.9307C58.2676 51.8041 58.4295 52.7391 58.3949 53.6772V73.2759C58.3949 78.787 60.9771 84.1915 64.8823 88.056C68.8469 91.9714 74.2223 94.1709 79.8269 94.1709C85.4315 94.1709 90.8069 91.9714 94.7715 88.056C98.8187 84.0559 101.22 79.0097 101.22 73.2759V43.8561H156.005V28.2237H101.234V23.2017C101.209 22.2042 101.393 21.2123 101.775 20.2887C102.157 19.365 102.729 18.5298 103.454 17.8359ZM94.4726 29.2455C94.4467 29.5614 94.3842 29.8734 94.2864 30.1753C94.0512 30.0106 93.7376 29.7394 93.4142 29.4586C92.1549 28.3592 90.8124 27.1873 88.7495 27.7878C86.9317 28.3108 86.3535 30.1075 85.6283 32.3594C85.3931 33.0858 85.1383 33.88 84.8198 34.6694C84.3651 35.9 83.6803 37.0352 82.8011 38.0157C80.0033 40.965 74.8584 39.5218 74.8388 39.5218C77.3427 43.643 83.0755 41.7592 84.8198 40.1611L84.9668 40.0158C85.0256 39.9577 85.0795 39.8996 85.1383 39.8318C85.8006 42.3586 86.8043 44.7856 88.1224 47.0475C90.9496 51.9484 88.7201 58.8396 86.2359 66.5154C85.8635 67.668 85.8047 67.8133 85.6381 68.3557C85.3343 69.3242 85.0599 70.1814 84.8198 70.9853C84.0359 73.6149 83.5753 75.4987 83.3009 76.7966C80.133 74.1564 77.3131 71.1335 74.9074 67.7987C68.6013 59.0818 64.8627 47.987 69.0276 38.3886C69.0276 38.3886 69.0276 38.3596 69.0276 38.3402C70.5366 36.6483 71.7983 34.7557 72.776 32.7177C73.7494 30.6966 74.3927 28.5357 74.682 26.3156C76.9408 26.2508 79.1842 26.7016 81.238 27.6328C80.6654 26.4372 79.7709 25.4203 78.6526 24.6934C77.5343 23.9665 76.2353 23.5577 74.8976 23.5116C73.9103 23.4346 72.9169 23.5197 71.9577 23.7635C69.7474 24.3009 67.6759 25.2908 65.877 26.6691L65.5634 26.8919C65.5346 26.4807 65.5346 26.0681 65.5634 25.657C65.6991 23.697 66.2482 21.7868 67.1755 20.0491L67.2245 19.9716C67.598 19.2904 68.0831 18.6752 68.6601 18.1507C68.9595 17.8936 69.3265 17.7257 69.7185 17.6664C69.7706 17.6613 69.8231 17.6613 69.8753 17.6664C70.2395 17.6848 70.5932 17.7931 70.9042 17.9812C71.593 18.4182 72.2039 18.9648 72.7123 19.5987C73.355 20.3916 74.0719 21.1229 74.8535 21.7828C77.3035 23.7635 79.5231 23.4923 84.8149 22.7126L85.1334 22.6642L85.6234 22.5867C88.4114 22.1799 90.4008 22.3639 91.7678 22.9257C92.3657 23.1396 92.8995 23.4988 93.3199 23.9702C93.7404 24.4416 94.034 25.01 94.1737 25.6231C94.4567 26.8122 94.5492 28.0377 94.4481 29.2552" fill="#B191C3"/>
</g>
</g>
</g>
<defs>
<clipPath id="clip0_717_4484">
<rect width="160" height="154" fill="white"/>
</clipPath>
</defs>
</svg>
